<?xml version="1.0" standalone="no"?><!DOCTYPE svg PUBLIC "-//W3C//DTD SVG 1.1//EN" "http://www.w3.org/Graphics/SVG/1.1/DTD/svg11.dtd"><svg t="1675400132941" class="icon" viewBox="0 0 1024 1024" version="1.1" xmlns="http://www.w3.org/2000/svg" p-id="3146" xmlns:xlink="http://www.w3.org/1999/xlink" width="128" height="128"><path d="M637.44 399.36c10.24 0 17.92 0 28.16 2.56-23.04-112.64-145.92-197.12-281.6-197.12-156.16 0-281.6 104.96-281.6 238.08 0 76.8 40.96 140.8 112.64 189.44L186.88 716.8l97.28-48.64c35.84 7.68 64 12.8 97.28 12.8h25.6c-5.12-17.92-7.68-38.4-7.68-58.88 0-122.88 104.96-222.72 238.08-222.72zM476.16 332.8c23.04 0 35.84 15.36 35.84 38.4s-12.8 38.4-35.84 38.4c-20.48 0-40.96-15.36-40.96-38.4s20.48-38.4 40.96-38.4z m-179.2 76.8c-20.48 0-40.96-15.36-40.96-38.4s20.48-38.4 40.96-38.4c23.04 0 35.84 15.36 35.84 38.4s-12.8 38.4-35.84 38.4z" fill="#2589FF" p-id="3147"></path><path d="M896 640c0 64-40.96 120.32-94.72 161.28l20.48 69.12-74.24-40.96c-28.16 7.68-53.76 12.8-81.92 12.8-128 0-230.4-92.16-230.4-204.8s102.4-204.8 230.4-204.8c122.88 2.56 230.4 94.72 230.4 207.36z m-309.76-51.2c17.92 0 28.16-12.8 28.16-25.6s-10.24-25.6-28.16-25.6c-10.24 0-23.04 12.8-23.04 25.6s10.24 25.6 23.04 25.6z m153.6 0c17.92 0 28.16-12.8 28.16-25.6s-10.24-25.6-28.16-25.6c-10.24 0-23.04 12.8-23.04 25.6s10.24 25.6 23.04 25.6z" fill="#A9CFFF" p-id="3148"></path></svg>